<svg width="1729" height="421" viewBox="0 0 1729 421" fill="none" xmlns="http://www.w3.org/2000/svg">
<g filter="url(#filter0_f_2_54)">
<path d="M463.153 11.6743L466.153 11.6732L466.15 4.7535L461.102 9.48532L463.153 11.6743ZM463.235 237.845L460.235 237.846L460.237 241.681L463.958 240.756L463.235 237.845ZM1272.21 238.108L1271.51 241.025L1275.21 241.913L1275.21 238.107L1272.21 238.108ZM1272.13 11.9375L1273.86 9.48549L1269.13 6.15088L1269.13 11.9386L1272.13 11.9375ZM291.988 172.088L291.738 175.078L293.067 175.189L294.039 174.277L291.988 172.088ZM1499.88 172.481L1498.15 174.933L1499.04 175.564L1500.14 175.47L1499.88 172.481ZM1722.06 156.429C1723.71 156.288 1724.94 154.835 1724.8 153.184C1724.65 151.533 1723.2 150.31 1721.55 150.451L1722.06 156.429ZM883.573 410.397L881.065 412.042L883.979 416.486L886.278 411.694L883.573 410.397ZM997.784 172.318L998.483 169.4L996.127 168.836L995.079 171.02L997.784 172.318ZM727.384 172.23L729.893 170.585L728.726 168.805L726.661 169.318L727.384 172.23ZM460.153 11.6754L460.235 237.846L466.235 237.844L466.153 11.6732L460.153 11.6754ZM1275.21 238.107L1275.13 11.9364L1269.13 11.9386L1269.21 238.109L1275.21 238.107ZM4.87467 151.093L291.738 175.078L292.238 169.099L5.37458 145.114L4.87467 151.093ZM294.039 174.277L465.204 13.8632L461.102 9.48532L289.937 169.899L294.039 174.277ZM1270.4 14.3895L1498.15 174.933L1501.61 170.029L1273.86 9.48549L1270.4 14.3895ZM1500.14 175.47L1722.06 156.429L1721.55 150.451L1499.62 169.492L1500.14 175.47ZM886.278 411.694L1000.49 173.615L995.079 171.02L880.868 409.099L886.278 411.694ZM997.084 175.235L1271.51 241.025L1272.91 235.191L998.483 169.4L997.084 175.235ZM463.958 240.756L728.108 175.141L726.661 169.318L462.512 234.933L463.958 240.756ZM724.876 173.875L881.065 412.042L886.082 408.751L729.893 170.585L724.876 173.875Z" fill="white"/>
</g>
<defs>
<filter id="filter0_f_2_54" x="0.874695" y="0.75351" width="1727.93" height="419.733" filterUnits="userSpaceOnUse" color-interpolation-filters="sRGB">
<feFlood flood-opacity="0" result="BackgroundImageFix"/>
<feBlend mode="normal" in="SourceGraphic" in2="BackgroundImageFix" result="shape"/>
<feGaussianBlur stdDeviation="2" result="effect1_foregroundBlur_2_54"/>
</filter>
</defs>
</svg>
